<mxfile host="app.diagrams.net" modified="2021-02-05T03:45:17.606Z" agent="5.0 (Windows NT 10.0; Win64; x64) AppleWebKit/537.36 (KHTML, like Gecko) Chrome/88.0.4324.104 Safari/537.36" etag="O1n0mkx1r0zO9zRHPzcV" version="14.2.9" type="github">
  <diagram id="kgpKYQtTHZ0yAKxKKP6v" name="Page-1">
    <mxGraphModel dx="1185" dy="588" grid="1" gridSize="10" guides="1" tooltips="1" connect="1" arrows="1" fold="1" page="1" pageScale="1" pageWidth="850" pageHeight="1100" math="0" shadow="0">
      <root>
        <mxCell id="0" />
        <mxCell id="1" parent="0" />
        <mxCell id="3nuBFxr9cyL0pnOWT2aG-1" value="ScreenCapture" style="shape=umlLifeline;perimeter=lifelinePerimeter;container=1;collapsible=0;recursiveResize=0;rounded=0;shadow=0;strokeWidth=1;" parent="1" vertex="1">
          <mxGeometry x="355" y="80" width="100" height="520" as="geometry" />
        </mxCell>
        <mxCell id="3nuBFxr9cyL0pnOWT2aG-5" value="VideoEncoder" style="shape=umlLifeline;perimeter=lifelinePerimeter;container=1;collapsible=0;recursiveResize=0;rounded=0;shadow=0;strokeWidth=1;" parent="1" vertex="1">
          <mxGeometry x="535" y="80" width="100" height="520" as="geometry" />
        </mxCell>
        <mxCell id="LkUILolSVg6wRJfoz2mt-26" value="" style="points=[];perimeter=orthogonalPerimeter;rounded=0;shadow=0;strokeWidth=1;" vertex="1" parent="3nuBFxr9cyL0pnOWT2aG-5">
          <mxGeometry x="45" y="150" width="10" height="270" as="geometry" />
        </mxCell>
        <mxCell id="LkUILolSVg6wRJfoz2mt-30" value="" style="endArrow=classic;html=1;" edge="1" parent="3nuBFxr9cyL0pnOWT2aG-5">
          <mxGeometry width="50" height="50" relative="1" as="geometry">
            <mxPoint x="57" y="182" as="sourcePoint" />
            <mxPoint x="57" y="220" as="targetPoint" />
            <Array as="points">
              <mxPoint x="85" y="182" />
              <mxPoint x="85" y="220" />
            </Array>
          </mxGeometry>
        </mxCell>
        <mxCell id="LkUILolSVg6wRJfoz2mt-1" value="PlayClient" style="rounded=0;whiteSpace=wrap;html=1;" vertex="1" parent="1">
          <mxGeometry x="190" y="80" width="100" height="40" as="geometry" />
        </mxCell>
        <mxCell id="LkUILolSVg6wRJfoz2mt-2" value="" style="endArrow=none;dashed=1;html=1;" edge="1" parent="1" source="LkUILolSVg6wRJfoz2mt-9">
          <mxGeometry width="50" height="50" relative="1" as="geometry">
            <mxPoint x="240" y="380" as="sourcePoint" />
            <mxPoint x="240" y="120" as="targetPoint" />
          </mxGeometry>
        </mxCell>
        <mxCell id="LkUILolSVg6wRJfoz2mt-4" value="StartGame" style="text;html=1;strokeColor=none;fillColor=none;align=center;verticalAlign=middle;whiteSpace=wrap;rounded=0;" vertex="1" parent="1">
          <mxGeometry x="265" y="150" width="40" height="20" as="geometry" />
        </mxCell>
        <mxCell id="3nuBFxr9cyL0pnOWT2aG-2" value="" style="points=[];perimeter=orthogonalPerimeter;rounded=0;shadow=0;strokeWidth=1;" parent="1" vertex="1">
          <mxGeometry x="330" y="780" width="10" height="150" as="geometry" />
        </mxCell>
        <mxCell id="3nuBFxr9cyL0pnOWT2aG-4" value="" style="points=[];perimeter=orthogonalPerimeter;rounded=0;shadow=0;strokeWidth=1;" parent="1" vertex="1">
          <mxGeometry x="335" y="790" width="10" height="80" as="geometry" />
        </mxCell>
        <mxCell id="3nuBFxr9cyL0pnOWT2aG-6" value="" style="points=[];perimeter=orthogonalPerimeter;rounded=0;shadow=0;strokeWidth=1;" parent="1" vertex="1">
          <mxGeometry x="510" y="750" width="10" height="160" as="geometry" />
        </mxCell>
        <mxCell id="3nuBFxr9cyL0pnOWT2aG-7" value="return" style="verticalAlign=bottom;endArrow=open;dashed=1;endSize=8;exitX=0;exitY=0.95;shadow=0;strokeWidth=1;" parent="1" source="3nuBFxr9cyL0pnOWT2aG-6" target="3nuBFxr9cyL0pnOWT2aG-2" edge="1">
          <mxGeometry relative="1" as="geometry">
            <mxPoint x="440" y="826" as="targetPoint" />
          </mxGeometry>
        </mxCell>
        <mxCell id="3nuBFxr9cyL0pnOWT2aG-9" value="callback" style="verticalAlign=bottom;endArrow=block;entryX=1;entryY=0;shadow=0;strokeWidth=1;" parent="1" source="3nuBFxr9cyL0pnOWT2aG-6" target="3nuBFxr9cyL0pnOWT2aG-4" edge="1">
          <mxGeometry relative="1" as="geometry">
            <mxPoint x="405" y="790" as="sourcePoint" />
          </mxGeometry>
        </mxCell>
        <mxCell id="3nuBFxr9cyL0pnOWT2aG-10" value="return" style="verticalAlign=bottom;endArrow=open;dashed=1;endSize=8;exitX=1;exitY=0.95;shadow=0;strokeWidth=1;" parent="1" source="3nuBFxr9cyL0pnOWT2aG-4" target="3nuBFxr9cyL0pnOWT2aG-6" edge="1">
          <mxGeometry relative="1" as="geometry">
            <mxPoint x="405" y="847" as="targetPoint" />
          </mxGeometry>
        </mxCell>
        <mxCell id="LkUILolSVg6wRJfoz2mt-7" value="" style="endArrow=classic;html=1;" edge="1" parent="1">
          <mxGeometry width="50" height="50" relative="1" as="geometry">
            <mxPoint x="120" y="160" as="sourcePoint" />
            <mxPoint x="233" y="160" as="targetPoint" />
          </mxGeometry>
        </mxCell>
        <mxCell id="LkUILolSVg6wRJfoz2mt-8" value="Game name" style="text;html=1;strokeColor=none;fillColor=none;align=center;verticalAlign=middle;whiteSpace=wrap;rounded=0;" vertex="1" parent="1">
          <mxGeometry x="130" y="140" width="80" height="20" as="geometry" />
        </mxCell>
        <mxCell id="LkUILolSVg6wRJfoz2mt-9" value="" style="points=[];perimeter=orthogonalPerimeter;rounded=0;shadow=0;strokeWidth=1;" vertex="1" parent="1">
          <mxGeometry x="235" y="150" width="10" height="380" as="geometry" />
        </mxCell>
        <mxCell id="LkUILolSVg6wRJfoz2mt-10" value="" style="endArrow=none;dashed=1;html=1;" edge="1" parent="1">
          <mxGeometry width="50" height="50" relative="1" as="geometry">
            <mxPoint x="240" y="380" as="sourcePoint" />
            <mxPoint x="240" y="600" as="targetPoint" />
          </mxGeometry>
        </mxCell>
        <mxCell id="LkUILolSVg6wRJfoz2mt-11" value="" style="endArrow=classic;html=1;exitX=1.094;exitY=0.06;exitDx=0;exitDy=0;exitPerimeter=0;entryX=1;entryY=0.132;entryDx=0;entryDy=0;entryPerimeter=0;" edge="1" parent="1" source="LkUILolSVg6wRJfoz2mt-9" target="LkUILolSVg6wRJfoz2mt-9">
          <mxGeometry width="50" height="50" relative="1" as="geometry">
            <mxPoint x="230" y="370" as="sourcePoint" />
            <mxPoint x="280" y="200" as="targetPoint" />
            <Array as="points">
              <mxPoint x="280" y="173" />
              <mxPoint x="280" y="200" />
            </Array>
          </mxGeometry>
        </mxCell>
        <mxCell id="LkUILolSVg6wRJfoz2mt-12" value="" style="endArrow=classic;html=1;entryX=-0.129;entryY=0.184;entryDx=0;entryDy=0;entryPerimeter=0;" edge="1" parent="1" target="LkUILolSVg6wRJfoz2mt-9">
          <mxGeometry width="50" height="50" relative="1" as="geometry">
            <mxPoint x="120" y="219.5" as="sourcePoint" />
            <mxPoint x="230" y="219" as="targetPoint" />
          </mxGeometry>
        </mxCell>
        <mxCell id="LkUILolSVg6wRJfoz2mt-13" value="Start video and audio" style="text;html=1;strokeColor=none;fillColor=none;align=center;verticalAlign=middle;whiteSpace=wrap;rounded=0;" vertex="1" parent="1">
          <mxGeometry x="120" y="210" width="100" height="20" as="geometry" />
        </mxCell>
        <mxCell id="LkUILolSVg6wRJfoz2mt-16" value="" style="endArrow=classic;html=1;entryX=-0.008;entryY=0.076;entryDx=0;entryDy=0;entryPerimeter=0;" edge="1" parent="1" target="LkUILolSVg6wRJfoz2mt-19">
          <mxGeometry width="50" height="50" relative="1" as="geometry">
            <mxPoint x="246" y="231" as="sourcePoint" />
            <mxPoint x="340" y="250" as="targetPoint" />
            <Array as="points" />
          </mxGeometry>
        </mxCell>
        <mxCell id="LkUILolSVg6wRJfoz2mt-17" value="Run()" style="text;html=1;strokeColor=none;fillColor=none;align=center;verticalAlign=middle;whiteSpace=wrap;rounded=0;" vertex="1" parent="1">
          <mxGeometry x="305" y="210" width="40" height="20" as="geometry" />
        </mxCell>
        <mxCell id="LkUILolSVg6wRJfoz2mt-19" value="" style="points=[];perimeter=orthogonalPerimeter;rounded=0;shadow=0;strokeWidth=1;" vertex="1" parent="1">
          <mxGeometry x="400" y="210" width="10" height="280" as="geometry" />
        </mxCell>
        <mxCell id="LkUILolSVg6wRJfoz2mt-20" value="" style="endArrow=classic;html=1;exitX=0.963;exitY=0.248;exitDx=0;exitDy=0;exitPerimeter=0;entryX=1.002;entryY=0.353;entryDx=0;entryDy=0;entryPerimeter=0;" edge="1" parent="1" source="LkUILolSVg6wRJfoz2mt-19" target="LkUILolSVg6wRJfoz2mt-19">
          <mxGeometry width="50" height="50" relative="1" as="geometry">
            <mxPoint x="413" y="280" as="sourcePoint" />
            <mxPoint x="413" y="309" as="targetPoint" />
            <Array as="points">
              <mxPoint x="440" y="280" />
              <mxPoint x="440" y="290" />
              <mxPoint x="440" y="309" />
            </Array>
          </mxGeometry>
        </mxCell>
        <mxCell id="LkUILolSVg6wRJfoz2mt-21" value="CaptureScreen" style="text;html=1;strokeColor=none;fillColor=none;align=center;verticalAlign=middle;whiteSpace=wrap;rounded=0;" vertex="1" parent="1">
          <mxGeometry x="440" y="260" width="40" height="20" as="geometry" />
        </mxCell>
        <mxCell id="LkUILolSVg6wRJfoz2mt-24" value="" style="endArrow=classic;html=1;" edge="1" parent="1" source="LkUILolSVg6wRJfoz2mt-9">
          <mxGeometry width="50" height="50" relative="1" as="geometry">
            <mxPoint x="250" y="250" as="sourcePoint" />
            <mxPoint x="580" y="250" as="targetPoint" />
            <Array as="points">
              <mxPoint x="320" y="250" />
            </Array>
          </mxGeometry>
        </mxCell>
        <mxCell id="LkUILolSVg6wRJfoz2mt-25" value="Run()" style="text;html=1;strokeColor=none;fillColor=none;align=center;verticalAlign=middle;whiteSpace=wrap;rounded=0;" vertex="1" parent="1">
          <mxGeometry x="470" y="230" width="40" height="20" as="geometry" />
        </mxCell>
        <mxCell id="LkUILolSVg6wRJfoz2mt-27" value="" style="endArrow=classic;html=1;exitX=1.1;exitY=0.513;exitDx=0;exitDy=0;exitPerimeter=0;" edge="1" parent="1">
          <mxGeometry width="50" height="50" relative="1" as="geometry">
            <mxPoint x="410" y="331.12000000000006" as="sourcePoint" />
            <mxPoint x="580" y="331" as="targetPoint" />
            <Array as="points" />
          </mxGeometry>
        </mxCell>
        <mxCell id="LkUILolSVg6wRJfoz2mt-28" value="GetScreenBuffer" style="text;html=1;strokeColor=none;fillColor=none;align=center;verticalAlign=middle;whiteSpace=wrap;rounded=0;" vertex="1" parent="1">
          <mxGeometry x="440" y="310" width="100" height="20" as="geometry" />
        </mxCell>
        <mxCell id="LkUILolSVg6wRJfoz2mt-29" value="" style="endArrow=classic;html=1;" edge="1" parent="1">
          <mxGeometry width="50" height="50" relative="1" as="geometry">
            <mxPoint x="590" y="358" as="sourcePoint" />
            <mxPoint x="590" y="400" as="targetPoint" />
            <Array as="points">
              <mxPoint x="620" y="358" />
              <mxPoint x="620" y="400" />
            </Array>
          </mxGeometry>
        </mxCell>
        <mxCell id="LkUILolSVg6wRJfoz2mt-31" value="Init" style="text;html=1;strokeColor=none;fillColor=none;align=center;verticalAlign=middle;whiteSpace=wrap;rounded=0;" vertex="1" parent="1">
          <mxGeometry x="595" y="240" width="40" height="20" as="geometry" />
        </mxCell>
        <mxCell id="LkUILolSVg6wRJfoz2mt-32" value="H264 encode" style="text;html=1;strokeColor=none;fillColor=none;align=center;verticalAlign=middle;whiteSpace=wrap;rounded=0;" vertex="1" parent="1">
          <mxGeometry x="595" y="340" width="75" height="20" as="geometry" />
        </mxCell>
        <mxCell id="LkUILolSVg6wRJfoz2mt-33" value="" style="endArrow=classic;html=1;" edge="1" parent="1">
          <mxGeometry width="50" height="50" relative="1" as="geometry">
            <mxPoint x="590" y="426" as="sourcePoint" />
            <mxPoint x="720" y="426" as="targetPoint" />
          </mxGeometry>
        </mxCell>
        <mxCell id="LkUILolSVg6wRJfoz2mt-34" value="Send H264 frame" style="text;html=1;strokeColor=none;fillColor=none;align=center;verticalAlign=middle;whiteSpace=wrap;rounded=0;" vertex="1" parent="1">
          <mxGeometry x="595" y="410" width="110" height="20" as="geometry" />
        </mxCell>
        <mxCell id="LkUILolSVg6wRJfoz2mt-36" value="" style="endArrow=classic;html=1;" edge="1" parent="1" source="LkUILolSVg6wRJfoz2mt-37">
          <mxGeometry width="50" height="50" relative="1" as="geometry">
            <mxPoint x="120" y="460" as="sourcePoint" />
            <mxPoint x="230" y="460" as="targetPoint" />
          </mxGeometry>
        </mxCell>
        <mxCell id="LkUILolSVg6wRJfoz2mt-37" value="Stop video and audio" style="text;html=1;strokeColor=none;fillColor=none;align=center;verticalAlign=middle;whiteSpace=wrap;rounded=0;" vertex="1" parent="1">
          <mxGeometry x="120" y="450" width="110" height="20" as="geometry" />
        </mxCell>
        <mxCell id="LkUILolSVg6wRJfoz2mt-38" value="" style="endArrow=classic;html=1;" edge="1" parent="1" target="LkUILolSVg6wRJfoz2mt-37">
          <mxGeometry width="50" height="50" relative="1" as="geometry">
            <mxPoint x="120" y="460" as="sourcePoint" />
            <mxPoint x="230" y="460" as="targetPoint" />
          </mxGeometry>
        </mxCell>
        <mxCell id="LkUILolSVg6wRJfoz2mt-39" value="" style="endArrow=classic;html=1;entryX=1;entryY=0.5;entryDx=0;entryDy=0;exitX=0;exitY=0.5;exitDx=0;exitDy=0;" edge="1" parent="1" source="LkUILolSVg6wRJfoz2mt-37" target="LkUILolSVg6wRJfoz2mt-37">
          <mxGeometry width="50" height="50" relative="1" as="geometry">
            <mxPoint x="100" y="450" as="sourcePoint" />
            <mxPoint x="150" y="400" as="targetPoint" />
          </mxGeometry>
        </mxCell>
        <mxCell id="LkUILolSVg6wRJfoz2mt-40" value="" style="endArrow=classic;html=1;exitX=0.981;exitY=0.84;exitDx=0;exitDy=0;exitPerimeter=0;" edge="1" parent="1" source="LkUILolSVg6wRJfoz2mt-9">
          <mxGeometry width="50" height="50" relative="1" as="geometry">
            <mxPoint x="250" y="470" as="sourcePoint" />
            <mxPoint x="400" y="470" as="targetPoint" />
          </mxGeometry>
        </mxCell>
        <mxCell id="LkUILolSVg6wRJfoz2mt-41" value="Stop()" style="text;html=1;strokeColor=none;fillColor=none;align=center;verticalAlign=middle;whiteSpace=wrap;rounded=0;" vertex="1" parent="1">
          <mxGeometry x="300" y="450" width="40" height="20" as="geometry" />
        </mxCell>
        <mxCell id="LkUILolSVg6wRJfoz2mt-42" value="" style="endArrow=classic;html=1;exitX=0.981;exitY=0.866;exitDx=0;exitDy=0;exitPerimeter=0;" edge="1" parent="1" source="LkUILolSVg6wRJfoz2mt-9">
          <mxGeometry width="50" height="50" relative="1" as="geometry">
            <mxPoint x="250" y="480" as="sourcePoint" />
            <mxPoint x="580" y="480" as="targetPoint" />
          </mxGeometry>
        </mxCell>
        <mxCell id="LkUILolSVg6wRJfoz2mt-43" value="Stop()" style="text;html=1;strokeColor=none;fillColor=none;align=center;verticalAlign=middle;whiteSpace=wrap;rounded=0;" vertex="1" parent="1">
          <mxGeometry x="470" y="460" width="40" height="20" as="geometry" />
        </mxCell>
        <mxCell id="LkUILolSVg6wRJfoz2mt-45" value="" style="endArrow=classic;html=1;" edge="1" parent="1">
          <mxGeometry width="50" height="50" relative="1" as="geometry">
            <mxPoint x="120" y="280" as="sourcePoint" />
            <mxPoint x="235" y="281" as="targetPoint" />
          </mxGeometry>
        </mxCell>
        <mxCell id="LkUILolSVg6wRJfoz2mt-46" value="control msg" style="text;html=1;align=center;verticalAlign=middle;resizable=0;points=[];autosize=1;" vertex="1" parent="1">
          <mxGeometry x="130" y="260" width="80" height="20" as="geometry" />
        </mxCell>
        <mxCell id="LkUILolSVg6wRJfoz2mt-48" value="" style="endArrow=classic;html=1;exitX=1.167;exitY=0.367;exitDx=0;exitDy=0;exitPerimeter=0;" edge="1" parent="1" source="LkUILolSVg6wRJfoz2mt-9">
          <mxGeometry width="50" height="50" relative="1" as="geometry">
            <mxPoint x="550" y="340" as="sourcePoint" />
            <mxPoint x="247" y="320" as="targetPoint" />
            <Array as="points">
              <mxPoint x="280" y="289" />
              <mxPoint x="280" y="320" />
            </Array>
          </mxGeometry>
        </mxCell>
        <mxCell id="LkUILolSVg6wRJfoz2mt-49" value="Input to game window" style="text;html=1;strokeColor=none;fillColor=none;align=center;verticalAlign=middle;whiteSpace=wrap;rounded=0;" vertex="1" parent="1">
          <mxGeometry x="250" y="270" width="80" height="20" as="geometry" />
        </mxCell>
      </root>
    </mxGraphModel>
  </diagram>
</mxfile>
